<svg xmlns="http://www.w3.org/2000/svg" xmlns:xlink="http://www.w3.org/1999/xlink" width="20" height="20" viewBox="0 0 20 20">
  <defs>
    <clipPath id="clip-path">
      <rect width="20" height="20" fill="none"/>
    </clipPath>
    <clipPath id="clip-path-2">
      <path id="icon_action_account_circle_24px" data-name="icon/action/account_circle_24px" d="M10,20A10,10,0,1,1,20,10,10.011,10.011,0,0,1,10,20Zm0-9.1c-2.02,0-5.97,1.087-6,3.08a7.2,7.2,0,0,0,12,0c-.017-1.114-1.241-1.858-2.265-2.286A10.7,10.7,0,0,0,10,10.9ZM10,3a3,3,0,1,0,3,3A3,3,0,0,0,10,3Z" transform="translate(14 14)" fill="#fff"/>
    </clipPath>
  </defs>
  <g id="buttons_profile" data-name="buttons/profile" clip-path="url(#clip-path)">
    <g id="Group" transform="translate(-14 -14)">
      <path id="icon_action_account_circle_24px-2" data-name="icon/action/account_circle_24px" d="M10,20A10,10,0,1,1,20,10,10.011,10.011,0,0,1,10,20Zm0-9.1c-2.02,0-5.97,1.087-6,3.08a7.2,7.2,0,0,0,12,0c-.017-1.114-1.241-1.858-2.265-2.286A10.7,10.7,0,0,0,10,10.9ZM10,3a3,3,0,1,0,3,3A3,3,0,0,0,10,3Z" transform="translate(14 14)" fill="#fff"/>
      <path id="icon_action_account_circle_24px-3" data-name="icon/action/account_circle_24px" d="M10,20A10,10,0,1,1,20,10,10.011,10.011,0,0,1,10,20Zm0-9.1c-2.02,0-5.97,1.087-6,3.08a7.2,7.2,0,0,0,12,0c-.017-1.114-1.241-1.858-2.265-2.286A10.7,10.7,0,0,0,10,10.9ZM10,3a3,3,0,1,0,3,3A3,3,0,0,0,10,3Z" transform="translate(14 14)"/>
    </g>
  </g>
</svg>
