<svg xmlns="http://www.w3.org/2000/svg" xmlns:xlink="http://www.w3.org/1999/xlink" width="44" height="44" viewBox="0 0 44 44">
  <defs>
    <clipPath id="clip-path">
      <rect width="44" height="44" fill="none"/>
    </clipPath>
    <clipPath id="clip-path-2">
      <path id="icon_navigation_chevron_right_24px" data-name="icon/navigation/chevron_right_24px" d="M.311.289a.931.931,0,0,0,0,1.389L4.435,5.5.311,9.323a.931.931,0,0,0,0,1.389,1.119,1.119,0,0,0,1.5,0L6.689,6.19a.931.931,0,0,0,0-1.389L1.81.28A1.13,1.13,0,0,0,.311.289Z" transform="translate(19 16)"/>
    </clipPath>
  </defs>
  <g id="chevron_white_bg" clip-path="url(#clip-path)">
    <g id="Group_9" data-name="Group 9">
      <rect id="Rectangle" width="44" height="44" rx="22" fill="#fff"/>
      <path id="icon_navigation_chevron_right_24px-2" data-name="icon/navigation/chevron_right_24px" d="M.311.289a.931.931,0,0,0,0,1.389L4.435,5.5.311,9.323a.931.931,0,0,0,0,1.389,1.119,1.119,0,0,0,1.5,0L6.689,6.19a.931.931,0,0,0,0-1.389L1.81.28A1.13,1.13,0,0,0,.311.289Z" transform="translate(19 16)"/>
    </g>
  </g>
</svg>
